User Type,Username,Date,Text
,ime021,2011-01-23T13:58Z,"media info:
Video
Duration                         : 1h 34mn
Bit rate mode                    : Variable
Bit rate                         : 1 941 Kbps
Maximum bit rate                 : 9 621 Kbps
Width                            : 1 280 pixels
Height                           : 690 pixels
Display aspect ratio             : 1.855
Frame rate mode                  : Constant
Frame rate                       : 23.976 fps
Stream size                      : 1.29 GiB (67%)

Audio
Format                           : AAC
Duration                         : 1h 34mn
Bit rate mode                    : Variable
Bit rate                         : 256 Kbps
Maximum bit rate                 : 277 Kbps
Channel(s)                       : 6 channels
Channel positions                : Front: L C R, Rear: L R, LFE
Sampling rate                    : 48.0 KHz
Stream size                      : 173 MiB (9%)"
,peterfarge,2011-08-19T12:15Z,"There is no extra (swedish) subtitle file included?!
Are the subs hardcoded?"
,peterfarge,2011-08-19T18:57Z,Language is italian. Subs are Hardcoded. Strike.
